<mxfile host="Electron" modified="2024-03-16T19:46:57.414Z" agent="Mozilla/5.0 (Windows NT 10.0; Win64; x64) AppleWebKit/537.36 (KHTML, like Gecko) draw.io/24.0.4 Chrome/120.0.6099.109 Electron/28.1.0 Safari/537.36" etag="9fa9PkbVXqqIxbe-bAeG" version="24.0.4" type="device" pages="7">
  <diagram name="SimpleMove" id="SQszq0q4NGzhNuZuHwGa">
    <mxGraphModel dx="777" dy="909" grid="1" gridSize="10" guides="1" tooltips="1" connect="1" arrows="1" fold="1" page="1" pageScale="1" pageWidth="827" pageHeight="1169" math="0" shadow="0">
      <root>
        <mxCell id="0" />
        <mxCell id="1" parent="0" />
        <mxCell id="gZ2zXh12_5f2vwSSyVmX-1" value="c: Student" style="shape=umlLifeline;perimeter=lifelinePerimeter;whiteSpace=wrap;html=1;container=0;dropTarget=0;collapsible=0;recursiveResize=0;outlineConnect=0;portConstraint=eastwest;newEdgeStyle={&quot;edgeStyle&quot;:&quot;elbowEdgeStyle&quot;,&quot;elbow&quot;:&quot;vertical&quot;,&quot;curved&quot;:0,&quot;rounded&quot;:0};" parent="1" vertex="1">
          <mxGeometry x="120" y="150" width="100" height="180" as="geometry" />
        </mxCell>
        <mxCell id="gZ2zXh12_5f2vwSSyVmX-2" value="" style="html=1;points=[];perimeter=orthogonalPerimeter;outlineConnect=0;targetShapes=umlLifeline;portConstraint=eastwest;newEdgeStyle={&quot;edgeStyle&quot;:&quot;elbowEdgeStyle&quot;,&quot;elbow&quot;:&quot;vertical&quot;,&quot;curved&quot;:0,&quot;rounded&quot;:0};" parent="gZ2zXh12_5f2vwSSyVmX-1" vertex="1">
          <mxGeometry x="45" y="70" width="10" height="90" as="geometry" />
        </mxCell>
        <mxCell id="gZ2zXh12_5f2vwSSyVmX-3" value="move(r1, r2)" style="html=1;verticalAlign=bottom;startArrow=none;endArrow=block;startSize=8;edgeStyle=elbowEdgeStyle;elbow=vertical;curved=0;rounded=0;startFill=0;" parent="gZ2zXh12_5f2vwSSyVmX-1" target="gZ2zXh12_5f2vwSSyVmX-2" edge="1">
          <mxGeometry x="0.1818" relative="1" as="geometry">
            <mxPoint x="-15" y="70" as="sourcePoint" />
            <Array as="points">
              <mxPoint x="-40" y="70" />
            </Array>
            <mxPoint as="offset" />
          </mxGeometry>
        </mxCell>
        <mxCell id="gZ2zXh12_5f2vwSSyVmX-4" value="r2: Room" style="shape=umlLifeline;perimeter=lifelinePerimeter;whiteSpace=wrap;html=1;container=0;dropTarget=0;collapsible=0;recursiveResize=0;outlineConnect=0;portConstraint=eastwest;newEdgeStyle={&quot;edgeStyle&quot;:&quot;elbowEdgeStyle&quot;,&quot;elbow&quot;:&quot;vertical&quot;,&quot;curved&quot;:0,&quot;rounded&quot;:0};" parent="1" vertex="1">
          <mxGeometry x="440" y="150" width="100" height="180" as="geometry" />
        </mxCell>
        <mxCell id="gZ2zXh12_5f2vwSSyVmX-7" value="r1: Room" style="shape=umlLifeline;perimeter=lifelinePerimeter;whiteSpace=wrap;html=1;container=1;dropTarget=0;collapsible=0;recursiveResize=0;outlineConnect=0;portConstraint=eastwest;newEdgeStyle={&quot;curved&quot;:0,&quot;rounded&quot;:0};" parent="1" vertex="1">
          <mxGeometry x="280" y="150" width="100" height="180" as="geometry" />
        </mxCell>
        <mxCell id="gZ2zXh12_5f2vwSSyVmX-14" value="" style="html=1;verticalAlign=bottom;endArrow=open;dashed=1;endSize=8;curved=0;rounded=0;" parent="1" edge="1">
          <mxGeometry relative="1" as="geometry">
            <mxPoint x="170" y="310" as="sourcePoint" />
            <mxPoint x="80" y="310" as="targetPoint" />
          </mxGeometry>
        </mxCell>
        <mxCell id="gZ2zXh12_5f2vwSSyVmX-15" value="&lt;b&gt;sd&lt;/b&gt;&amp;nbsp;Simple Move" style="shape=umlFrame;whiteSpace=wrap;html=1;pointerEvents=0;width=190;height=30;" parent="1" vertex="1">
          <mxGeometry x="80" y="110" width="530" height="240" as="geometry" />
        </mxCell>
        <mxCell id="gZ2zXh12_5f2vwSSyVmX-16" value=": Tester" style="shape=umlActor;verticalLabelPosition=bottom;verticalAlign=top;html=1;" parent="1" vertex="1">
          <mxGeometry x="60" y="10" width="30" height="60" as="geometry" />
        </mxCell>
        <mxCell id="gZ2zXh12_5f2vwSSyVmX-17" value="" style="endArrow=none;dashed=1;html=1;rounded=0;" parent="1" edge="1">
          <mxGeometry width="50" height="50" relative="1" as="geometry">
            <mxPoint x="80" y="360" as="sourcePoint" />
            <mxPoint x="80" y="90" as="targetPoint" />
          </mxGeometry>
        </mxCell>
        <mxCell id="gZ2zXh12_5f2vwSSyVmX-18" value="&lt;b&gt;ref&amp;nbsp;&lt;/b&gt;&amp;nbsp;Enter Room" style="shape=umlFrame;whiteSpace=wrap;html=1;pointerEvents=0;width=110;height=20;" parent="1" vertex="1">
          <mxGeometry x="120" y="240" width="260" height="50" as="geometry" />
        </mxCell>
      </root>
    </mxGraphModel>
  </diagram>
  <diagram id="rWSgfJfHazbyOsPTVsi5" name="TransistorJump">
    <mxGraphModel dx="720" dy="568" grid="1" gridSize="10" guides="1" tooltips="1" connect="1" arrows="1" fold="1" page="1" pageScale="1" pageWidth="827" pageHeight="1169" math="0" shadow="0">
      <root>
        <mxCell id="0" />
        <mxCell id="1" parent="0" />
        <mxCell id="1iK2oLmr5BTvay5JdJ0R-1" value="s: Student" style="shape=umlLifeline;perimeter=lifelinePerimeter;whiteSpace=wrap;html=1;container=1;dropTarget=0;collapsible=0;recursiveResize=0;outlineConnect=0;portConstraint=eastwest;newEdgeStyle={&quot;curved&quot;:0,&quot;rounded&quot;:0};" vertex="1" parent="1">
          <mxGeometry x="170" y="160" width="100" height="300" as="geometry" />
        </mxCell>
        <mxCell id="1iK2oLmr5BTvay5JdJ0R-2" value="" style="html=1;points=[[0,0,0,0,5],[0,1,0,0,-5],[1,0,0,0,5],[1,1,0,0,-5]];perimeter=orthogonalPerimeter;outlineConnect=0;targetShapes=umlLifeline;portConstraint=eastwest;newEdgeStyle={&quot;curved&quot;:0,&quot;rounded&quot;:0};" vertex="1" parent="1iK2oLmr5BTvay5JdJ0R-1">
          <mxGeometry x="45" y="60" width="10" height="220" as="geometry" />
        </mxCell>
        <mxCell id="1iK2oLmr5BTvay5JdJ0R-3" value="r1: Room" style="shape=umlLifeline;perimeter=lifelinePerimeter;whiteSpace=wrap;html=1;container=1;dropTarget=0;collapsible=0;recursiveResize=0;outlineConnect=0;portConstraint=eastwest;newEdgeStyle={&quot;curved&quot;:0,&quot;rounded&quot;:0};" vertex="1" parent="1">
          <mxGeometry x="540" y="160" width="100" height="300" as="geometry" />
        </mxCell>
        <mxCell id="1iK2oLmr5BTvay5JdJ0R-4" value="" style="html=1;points=[[0,0,0,0,5],[0,1,0,0,-5],[1,0,0,0,5],[1,1,0,0,-5]];perimeter=orthogonalPerimeter;outlineConnect=0;targetShapes=umlLifeline;portConstraint=eastwest;newEdgeStyle={&quot;curved&quot;:0,&quot;rounded&quot;:0};" vertex="1" parent="1iK2oLmr5BTvay5JdJ0R-3">
          <mxGeometry x="45" y="70" width="10" height="40" as="geometry" />
        </mxCell>
        <mxCell id="1iK2oLmr5BTvay5JdJ0R-5" value="" style="html=1;points=[[0,0,0,0,5],[0,1,0,0,-5],[1,0,0,0,5],[1,1,0,0,-5]];perimeter=orthogonalPerimeter;outlineConnect=0;targetShapes=umlLifeline;portConstraint=eastwest;newEdgeStyle={&quot;curved&quot;:0,&quot;rounded&quot;:0};" vertex="1" parent="1iK2oLmr5BTvay5JdJ0R-3">
          <mxGeometry x="45" y="180" width="10" height="30" as="geometry" />
        </mxCell>
        <mxCell id="1iK2oLmr5BTvay5JdJ0R-6" value="t: Transistor" style="shape=umlLifeline;whiteSpace=wrap;html=1;container=1;dropTarget=0;collapsible=0;recursiveResize=0;outlineConnect=0;portConstraint=eastwest;newEdgeStyle={&quot;curved&quot;:0,&quot;rounded&quot;:0};points=[[0,0,0,0,5],[0,1,0,0,-5],[1,0,0,0,5],[1,1,0,0,-5]];perimeter=rectanglePerimeter;targetShapes=umlLifeline;participant=label;" vertex="1" parent="1">
          <mxGeometry x="414" y="160" width="100" height="300" as="geometry" />
        </mxCell>
        <mxCell id="1iK2oLmr5BTvay5JdJ0R-7" value="" style="html=1;points=[[0,0,0,0,5],[0,1,0,0,-5],[1,0,0,0,5],[1,1,0,0,-5]];perimeter=orthogonalPerimeter;outlineConnect=0;targetShapes=umlLifeline;portConstraint=eastwest;newEdgeStyle={&quot;curved&quot;:0,&quot;rounded&quot;:0};" vertex="1" parent="1iK2oLmr5BTvay5JdJ0R-6">
          <mxGeometry x="45" y="130" width="10" height="30" as="geometry" />
        </mxCell>
        <mxCell id="1iK2oLmr5BTvay5JdJ0R-8" value="r2: Room" style="shape=umlLifeline;perimeter=lifelinePerimeter;whiteSpace=wrap;html=1;container=1;dropTarget=0;collapsible=0;recursiveResize=0;outlineConnect=0;portConstraint=eastwest;newEdgeStyle={&quot;curved&quot;:0,&quot;rounded&quot;:0};" vertex="1" parent="1">
          <mxGeometry x="300" y="160" width="100" height="300" as="geometry" />
        </mxCell>
        <mxCell id="1iK2oLmr5BTvay5JdJ0R-9" value="getTransistor()" style="html=1;verticalAlign=bottom;endArrow=block;curved=0;rounded=0;entryX=0;entryY=0;entryDx=0;entryDy=5;" edge="1" parent="1" source="1iK2oLmr5BTvay5JdJ0R-2" target="1iK2oLmr5BTvay5JdJ0R-4">
          <mxGeometry relative="1" as="geometry">
            <mxPoint x="295" y="245" as="sourcePoint" />
          </mxGeometry>
        </mxCell>
        <mxCell id="1iK2oLmr5BTvay5JdJ0R-10" value="t: Transistor" style="html=1;verticalAlign=bottom;endArrow=open;dashed=1;endSize=8;curved=0;rounded=0;exitX=0;exitY=1;exitDx=0;exitDy=-5;" edge="1" parent="1" source="1iK2oLmr5BTvay5JdJ0R-4" target="1iK2oLmr5BTvay5JdJ0R-2">
          <mxGeometry relative="1" as="geometry">
            <mxPoint x="295" y="315" as="targetPoint" />
          </mxGeometry>
        </mxCell>
        <mxCell id="1iK2oLmr5BTvay5JdJ0R-11" value="transistorJump()" style="html=1;verticalAlign=bottom;endArrow=block;curved=0;rounded=0;entryX=0.5;entryY=0.045;entryDx=0;entryDy=0;entryPerimeter=0;exitX=0.003;exitY=0.307;exitDx=0;exitDy=0;exitPerimeter=0;" edge="1" parent="1" source="1iK2oLmr5BTvay5JdJ0R-17" target="1iK2oLmr5BTvay5JdJ0R-2">
          <mxGeometry x="-0.1429" width="80" relative="1" as="geometry">
            <mxPoint x="140" y="230" as="sourcePoint" />
            <mxPoint x="200" y="230" as="targetPoint" />
            <mxPoint as="offset" />
          </mxGeometry>
        </mxCell>
        <mxCell id="1iK2oLmr5BTvay5JdJ0R-12" value="getPairsRoom()" style="html=1;verticalAlign=bottom;endArrow=block;curved=0;rounded=0;entryX=0;entryY=0;entryDx=0;entryDy=5;" edge="1" parent="1" source="1iK2oLmr5BTvay5JdJ0R-2" target="1iK2oLmr5BTvay5JdJ0R-7">
          <mxGeometry relative="1" as="geometry">
            <mxPoint x="455" y="285" as="sourcePoint" />
          </mxGeometry>
        </mxCell>
        <mxCell id="1iK2oLmr5BTvay5JdJ0R-13" value="r2: Room" style="html=1;verticalAlign=bottom;endArrow=open;dashed=1;endSize=8;curved=0;rounded=0;exitX=0;exitY=1;exitDx=0;exitDy=-5;" edge="1" parent="1" source="1iK2oLmr5BTvay5JdJ0R-7" target="1iK2oLmr5BTvay5JdJ0R-2">
          <mxGeometry relative="1" as="geometry">
            <mxPoint x="455" y="355" as="targetPoint" />
          </mxGeometry>
        </mxCell>
        <mxCell id="1iK2oLmr5BTvay5JdJ0R-14" value="" style="html=1;verticalAlign=bottom;endArrow=open;dashed=1;endSize=8;curved=0;rounded=0;exitX=0;exitY=1;exitDx=0;exitDy=-5;" edge="1" parent="1" source="1iK2oLmr5BTvay5JdJ0R-5" target="1iK2oLmr5BTvay5JdJ0R-2">
          <mxGeometry relative="1" as="geometry">
            <mxPoint x="295" y="405" as="targetPoint" />
          </mxGeometry>
        </mxCell>
        <mxCell id="1iK2oLmr5BTvay5JdJ0R-15" value="removePlayer(s)" style="html=1;verticalAlign=bottom;endArrow=block;curved=0;rounded=0;entryX=0;entryY=0;entryDx=0;entryDy=5;" edge="1" parent="1" source="1iK2oLmr5BTvay5JdJ0R-2" target="1iK2oLmr5BTvay5JdJ0R-5">
          <mxGeometry relative="1" as="geometry">
            <mxPoint x="295" y="335" as="sourcePoint" />
          </mxGeometry>
        </mxCell>
        <mxCell id="1iK2oLmr5BTvay5JdJ0R-16" value="" style="html=1;verticalAlign=bottom;endArrow=open;dashed=1;endSize=8;curved=0;rounded=0;" edge="1" parent="1">
          <mxGeometry relative="1" as="geometry">
            <mxPoint x="210" y="440" as="sourcePoint" />
            <mxPoint x="120" y="440" as="targetPoint" />
          </mxGeometry>
        </mxCell>
        <mxCell id="1iK2oLmr5BTvay5JdJ0R-17" value="&lt;b&gt;sd&lt;/b&gt;&amp;nbsp;Transistor Jump" style="shape=umlFrame;whiteSpace=wrap;html=1;pointerEvents=0;width=190;height=30;" vertex="1" parent="1">
          <mxGeometry x="120" y="120" width="550" height="360" as="geometry" />
        </mxCell>
        <mxCell id="1iK2oLmr5BTvay5JdJ0R-18" value="" style="endArrow=none;dashed=1;html=1;rounded=0;" edge="1" parent="1">
          <mxGeometry width="50" height="50" relative="1" as="geometry">
            <mxPoint x="120" y="500" as="sourcePoint" />
            <mxPoint x="120" y="110" as="targetPoint" />
          </mxGeometry>
        </mxCell>
        <mxCell id="1iK2oLmr5BTvay5JdJ0R-19" value=":Tester" style="shape=umlActor;verticalLabelPosition=bottom;verticalAlign=top;html=1;outlineConnect=0;" vertex="1" parent="1">
          <mxGeometry x="100" y="10" width="40" height="80" as="geometry" />
        </mxCell>
        <mxCell id="1iK2oLmr5BTvay5JdJ0R-20" value="&lt;b&gt;ref &lt;/b&gt;Enter Room" style="shape=umlFrame;whiteSpace=wrap;html=1;pointerEvents=0;width=100;height=20;" vertex="1" parent="1">
          <mxGeometry x="180" y="380" width="190" height="50" as="geometry" />
        </mxCell>
      </root>
    </mxGraphModel>
  </diagram>
  <diagram id="DKAo0ZS7zxuBKhRCYWOp" name="EnterRoom">
    <mxGraphModel dx="1056" dy="909" grid="1" gridSize="10" guides="1" tooltips="1" connect="1" arrows="1" fold="1" page="1" pageScale="1" pageWidth="827" pageHeight="1169" math="0" shadow="0">
      <root>
        <mxCell id="0" />
        <mxCell id="1" parent="0" />
        <mxCell id="K6yhM9aNbkFL8c74EqzJ-1" value="r2: Room" style="shape=umlLifeline;perimeter=lifelinePerimeter;whiteSpace=wrap;html=1;container=0;dropTarget=0;collapsible=0;recursiveResize=0;outlineConnect=0;portConstraint=eastwest;newEdgeStyle={&quot;edgeStyle&quot;:&quot;elbowEdgeStyle&quot;,&quot;elbow&quot;:&quot;vertical&quot;,&quot;curved&quot;:0,&quot;rounded&quot;:0};" parent="1" vertex="1">
          <mxGeometry x="282.32" y="160" width="100" height="340" as="geometry" />
        </mxCell>
        <mxCell id="K6yhM9aNbkFL8c74EqzJ-2" value="" style="html=1;points=[[0,0,0,0,5],[0,1,0,0,-5],[1,0,0,0,5],[1,1,0,0,-5]];perimeter=orthogonalPerimeter;outlineConnect=0;targetShapes=umlLifeline;portConstraint=eastwest;newEdgeStyle={&quot;curved&quot;:0,&quot;rounded&quot;:0};" parent="K6yhM9aNbkFL8c74EqzJ-1" vertex="1">
          <mxGeometry x="45" y="60" width="10" height="260" as="geometry" />
        </mxCell>
        <mxCell id="K6yhM9aNbkFL8c74EqzJ-3" value="addCharacter(c)" style="html=1;verticalAlign=bottom;endArrow=block;curved=0;rounded=0;" parent="1" edge="1">
          <mxGeometry width="80" relative="1" as="geometry">
            <mxPoint x="120" y="230" as="sourcePoint" />
            <mxPoint x="327.3200000000001" y="229.65999999999997" as="targetPoint" />
          </mxGeometry>
        </mxCell>
        <mxCell id="K6yhM9aNbkFL8c74EqzJ-4" value="" style="html=1;points=[[0,0,0,0,5],[0,1,0,0,-5],[1,0,0,0,5],[1,1,0,0,-5]];perimeter=orthogonalPerimeter;outlineConnect=0;targetShapes=umlLifeline;portConstraint=eastwest;newEdgeStyle={&quot;curved&quot;:0,&quot;rounded&quot;:0};" parent="1" vertex="1">
          <mxGeometry x="332.32" y="359.34" width="10" height="110" as="geometry" />
        </mxCell>
        <mxCell id="K6yhM9aNbkFL8c74EqzJ-5" value="onEntered(c)" style="html=1;align=left;spacingLeft=2;endArrow=block;rounded=0;edgeStyle=orthogonalEdgeStyle;curved=0;rounded=0;" parent="1" target="K6yhM9aNbkFL8c74EqzJ-4" edge="1">
          <mxGeometry x="0.0053" relative="1" as="geometry">
            <mxPoint x="337.32" y="339.34" as="sourcePoint" />
            <Array as="points">
              <mxPoint x="337" y="349.31" />
              <mxPoint x="367" y="349.31" />
              <mxPoint x="367" y="369.31" />
            </Array>
            <mxPoint as="offset" />
          </mxGeometry>
        </mxCell>
        <mxCell id="K6yhM9aNbkFL8c74EqzJ-6" value="c2: Character" style="shape=umlLifeline;perimeter=lifelinePerimeter;whiteSpace=wrap;html=1;container=1;dropTarget=0;collapsible=0;recursiveResize=0;outlineConnect=0;portConstraint=eastwest;newEdgeStyle={&quot;curved&quot;:0,&quot;rounded&quot;:0};" parent="1" vertex="1">
          <mxGeometry x="442.32" y="160" width="100" height="320" as="geometry" />
        </mxCell>
        <mxCell id="K6yhM9aNbkFL8c74EqzJ-7" value="&lt;b&gt;loop&lt;/b&gt;" style="shape=umlFrame;whiteSpace=wrap;html=1;pointerEvents=0;width=60;height=20;" parent="1" vertex="1">
          <mxGeometry x="210" y="379.34" width="332.32" height="70" as="geometry" />
        </mxCell>
        <mxCell id="K6yhM9aNbkFL8c74EqzJ-8" value="[for all c2 :&lt;br&gt;listOfCharacters]" style="text;html=1;align=center;verticalAlign=middle;resizable=0;points=[];autosize=1;strokeColor=none;fillColor=none;" parent="1" vertex="1">
          <mxGeometry x="217.32" y="399.34" width="110" height="40" as="geometry" />
        </mxCell>
        <mxCell id="K6yhM9aNbkFL8c74EqzJ-9" value="meet(c)" style="html=1;verticalAlign=bottom;endArrow=block;curved=0;rounded=0;" parent="1" target="K6yhM9aNbkFL8c74EqzJ-10" edge="1">
          <mxGeometry width="80" relative="1" as="geometry">
            <mxPoint x="342.32" y="399.34" as="sourcePoint" />
            <mxPoint x="587.32" y="399.34" as="targetPoint" />
          </mxGeometry>
        </mxCell>
        <mxCell id="K6yhM9aNbkFL8c74EqzJ-10" value="" style="html=1;points=[[0,0,0,0,5],[0,1,0,0,-5],[1,0,0,0,5],[1,1,0,0,-5]];perimeter=orthogonalPerimeter;outlineConnect=0;targetShapes=umlLifeline;portConstraint=eastwest;newEdgeStyle={&quot;curved&quot;:0,&quot;rounded&quot;:0};" parent="1" vertex="1">
          <mxGeometry x="487.32" y="399.34" width="10" height="30" as="geometry" />
        </mxCell>
        <mxCell id="K6yhM9aNbkFL8c74EqzJ-11" value="" style="html=1;verticalAlign=bottom;endArrow=open;dashed=1;endSize=8;curved=0;rounded=0;" parent="1" edge="1">
          <mxGeometry relative="1" as="geometry">
            <mxPoint x="482.32" y="429.34" as="sourcePoint" />
            <mxPoint x="342.32" y="429.34" as="targetPoint" />
          </mxGeometry>
        </mxCell>
        <mxCell id="K6yhM9aNbkFL8c74EqzJ-12" value="" style="html=1;verticalAlign=bottom;endArrow=open;dashed=1;endSize=8;curved=0;rounded=0;" parent="1" edge="1">
          <mxGeometry relative="1" as="geometry">
            <mxPoint x="332.32" y="479.31" as="sourcePoint" />
            <mxPoint x="120" y="479.31" as="targetPoint" />
          </mxGeometry>
        </mxCell>
        <mxCell id="K6yhM9aNbkFL8c74EqzJ-13" value="&lt;b&gt;sd&lt;/b&gt;&amp;nbsp;Enter Room" style="shape=umlFrame;whiteSpace=wrap;html=1;pointerEvents=0;width=190;height=30;" parent="1" vertex="1">
          <mxGeometry x="120" y="120" width="640" height="390" as="geometry" />
        </mxCell>
        <mxCell id="K6yhM9aNbkFL8c74EqzJ-14" value="c: Character" style="shape=umlLifeline;perimeter=lifelinePerimeter;whiteSpace=wrap;html=1;container=1;dropTarget=0;collapsible=0;recursiveResize=0;outlineConnect=0;portConstraint=eastwest;newEdgeStyle={&quot;curved&quot;:0,&quot;rounded&quot;:0};" parent="1" vertex="1">
          <mxGeometry x="550" y="160" width="100" height="320" as="geometry" />
        </mxCell>
        <mxCell id="qcUbQJ9pjJsbK67-71Ls-1" value="" style="html=1;points=[[0,0,0,0,5],[0,1,0,0,-5],[1,0,0,0,5],[1,1,0,0,-5]];perimeter=orthogonalPerimeter;outlineConnect=0;targetShapes=umlLifeline;portConstraint=eastwest;newEdgeStyle={&quot;curved&quot;:0,&quot;rounded&quot;:0};" parent="K6yhM9aNbkFL8c74EqzJ-14" vertex="1">
          <mxGeometry x="45" y="70" width="10" height="30" as="geometry" />
        </mxCell>
        <mxCell id="K6yhM9aNbkFL8c74EqzJ-15" value="" style="endArrow=none;dashed=1;html=1;rounded=0;" parent="1" edge="1">
          <mxGeometry width="50" height="50" relative="1" as="geometry">
            <mxPoint x="120" y="520" as="sourcePoint" />
            <mxPoint x="120" y="110" as="targetPoint" />
          </mxGeometry>
        </mxCell>
        <mxCell id="K6yhM9aNbkFL8c74EqzJ-16" value=": Tester" style="shape=umlActor;verticalLabelPosition=bottom;verticalAlign=top;html=1;outlineConnect=0;" parent="1" vertex="1">
          <mxGeometry x="100" y="10" width="40" height="70" as="geometry" />
        </mxCell>
        <mxCell id="qcUbQJ9pjJsbK67-71Ls-3" value="r: Room" style="html=1;verticalAlign=bottom;endArrow=open;dashed=1;endSize=8;curved=0;rounded=0;exitX=0;exitY=1;exitDx=0;exitDy=-5;" parent="1" source="qcUbQJ9pjJsbK67-71Ls-1" target="K6yhM9aNbkFL8c74EqzJ-2" edge="1">
          <mxGeometry x="0.001" relative="1" as="geometry">
            <mxPoint x="525" y="305" as="targetPoint" />
            <mxPoint as="offset" />
          </mxGeometry>
        </mxCell>
        <mxCell id="qcUbQJ9pjJsbK67-71Ls-2" value="getRoom()" style="html=1;verticalAlign=bottom;endArrow=block;curved=0;rounded=0;entryX=0;entryY=0;entryDx=0;entryDy=5;exitX=1.268;exitY=0.063;exitDx=0;exitDy=0;exitPerimeter=0;" parent="1" source="K6yhM9aNbkFL8c74EqzJ-2" target="qcUbQJ9pjJsbK67-71Ls-1" edge="1">
          <mxGeometry relative="1" as="geometry">
            <mxPoint x="525" y="235" as="sourcePoint" />
          </mxGeometry>
        </mxCell>
        <mxCell id="c5o3wD96JJGcDoexrMFx-1" value="r: Room" style="shape=umlLifeline;perimeter=lifelinePerimeter;whiteSpace=wrap;html=1;container=1;dropTarget=0;collapsible=0;recursiveResize=0;outlineConnect=0;portConstraint=eastwest;newEdgeStyle={&quot;curved&quot;:0,&quot;rounded&quot;:0};" parent="1" vertex="1">
          <mxGeometry x="660" y="160" width="90" height="320" as="geometry" />
        </mxCell>
        <mxCell id="87y6LAZPQpnc_E2BQaB8-1" value="" style="html=1;points=[[0,0,0,0,5],[0,1,0,0,-5],[1,0,0,0,5],[1,1,0,0,-5]];perimeter=orthogonalPerimeter;outlineConnect=0;targetShapes=umlLifeline;portConstraint=eastwest;newEdgeStyle={&quot;curved&quot;:0,&quot;rounded&quot;:0};" parent="c5o3wD96JJGcDoexrMFx-1" vertex="1">
          <mxGeometry x="40" y="139" width="10" height="21" as="geometry" />
        </mxCell>
        <mxCell id="c5o3wD96JJGcDoexrMFx-2" value="" style="html=1;points=[[0,0,0,0,5],[0,1,0,0,-5],[1,0,0,0,5],[1,1,0,0,-5]];perimeter=orthogonalPerimeter;outlineConnect=0;targetShapes=umlLifeline;portConstraint=eastwest;newEdgeStyle={&quot;curved&quot;:0,&quot;rounded&quot;:0};" parent="1" vertex="1">
          <mxGeometry x="332.32" y="280" width="10" height="10" as="geometry" />
        </mxCell>
        <mxCell id="c5o3wD96JJGcDoexrMFx-3" value="b = isAccessible(r)" style="html=1;align=left;spacingLeft=2;endArrow=block;rounded=0;edgeStyle=orthogonalEdgeStyle;curved=0;rounded=0;" parent="1" target="c5o3wD96JJGcDoexrMFx-2" edge="1">
          <mxGeometry relative="1" as="geometry">
            <mxPoint x="337" y="260" as="sourcePoint" />
            <Array as="points">
              <mxPoint x="367" y="260" />
              <mxPoint x="367" y="280" />
            </Array>
          </mxGeometry>
        </mxCell>
        <mxCell id="yjk80g_wgE8M2rOejYpA-1" value="&lt;b&gt;opt&lt;/b&gt;" style="shape=umlFrame;whiteSpace=wrap;html=1;pointerEvents=0;width=60;height=25;" parent="1" vertex="1">
          <mxGeometry x="160" y="340" width="490" height="129.31" as="geometry" />
        </mxCell>
        <mxCell id="yjk80g_wgE8M2rOejYpA-2" value="[b]" style="text;html=1;align=center;verticalAlign=middle;resizable=0;points=[];autosize=1;strokeColor=none;fillColor=none;" parent="1" vertex="1">
          <mxGeometry x="230" y="340" width="40" height="30" as="geometry" />
        </mxCell>
        <mxCell id="87y6LAZPQpnc_E2BQaB8-2" value="removeCharacter(c)" style="html=1;verticalAlign=bottom;endArrow=block;curved=0;rounded=0;entryX=0;entryY=0;entryDx=0;entryDy=5;" parent="1" source="K6yhM9aNbkFL8c74EqzJ-2" target="87y6LAZPQpnc_E2BQaB8-1" edge="1">
          <mxGeometry relative="1" as="geometry">
            <mxPoint x="630" y="304" as="sourcePoint" />
          </mxGeometry>
        </mxCell>
        <mxCell id="87y6LAZPQpnc_E2BQaB8-3" value="" style="html=1;verticalAlign=bottom;endArrow=open;dashed=1;endSize=8;curved=0;rounded=0;exitX=0;exitY=1;exitDx=0;exitDy=-5;" parent="1" source="87y6LAZPQpnc_E2BQaB8-1" target="K6yhM9aNbkFL8c74EqzJ-2" edge="1">
          <mxGeometry relative="1" as="geometry">
            <mxPoint x="630" y="374" as="targetPoint" />
          </mxGeometry>
        </mxCell>
      </root>
    </mxGraphModel>
  </diagram>
  <diagram id="dj_rnkIg-tkd5GOHcAZl" name="UseDice">
    <mxGraphModel dx="528" dy="455" grid="1" gridSize="10" guides="1" tooltips="1" connect="1" arrows="1" fold="1" page="1" pageScale="1" pageWidth="827" pageHeight="1169" math="0" shadow="0">
      <root>
        <mxCell id="0" />
        <mxCell id="1" parent="0" />
        <mxCell id="a0_oUcO_zjaNSEBDjv2x-1" value="s: Student" style="shape=umlLifeline;perimeter=lifelinePerimeter;whiteSpace=wrap;html=1;container=1;dropTarget=0;collapsible=0;recursiveResize=0;outlineConnect=0;portConstraint=eastwest;newEdgeStyle={&quot;curved&quot;:0,&quot;rounded&quot;:0};" parent="1" vertex="1">
          <mxGeometry x="143.8" y="170" width="100" height="250" as="geometry" />
        </mxCell>
        <mxCell id="a0_oUcO_zjaNSEBDjv2x-2" value="" style="html=1;points=[[0,0,0,0,5],[0,1,0,0,-5],[1,0,0,0,5],[1,1,0,0,-5]];perimeter=orthogonalPerimeter;outlineConnect=0;targetShapes=umlLifeline;portConstraint=eastwest;newEdgeStyle={&quot;curved&quot;:0,&quot;rounded&quot;:0};" parent="a0_oUcO_zjaNSEBDjv2x-1" vertex="1">
          <mxGeometry x="45" y="70" width="10" height="170" as="geometry" />
        </mxCell>
        <mxCell id="a0_oUcO_zjaNSEBDjv2x-3" value="d: Dice" style="shape=umlLifeline;perimeter=lifelinePerimeter;whiteSpace=wrap;html=1;container=1;dropTarget=0;collapsible=0;recursiveResize=0;outlineConnect=0;portConstraint=eastwest;newEdgeStyle={&quot;curved&quot;:0,&quot;rounded&quot;:0};" parent="1" vertex="1">
          <mxGeometry x="303.8" y="170" width="100" height="250" as="geometry" />
        </mxCell>
        <mxCell id="a0_oUcO_zjaNSEBDjv2x-4" value="" style="html=1;points=[[0,0,0,0,5],[0,1,0,0,-5],[1,0,0,0,5],[1,1,0,0,-5]];perimeter=orthogonalPerimeter;outlineConnect=0;targetShapes=umlLifeline;portConstraint=eastwest;newEdgeStyle={&quot;curved&quot;:0,&quot;rounded&quot;:0};" parent="a0_oUcO_zjaNSEBDjv2x-3" vertex="1">
          <mxGeometry x="45" y="90" width="10" height="90" as="geometry" />
        </mxCell>
        <mxCell id="a0_oUcO_zjaNSEBDjv2x-5" value="useItem(d)" style="html=1;verticalAlign=bottom;endArrow=block;curved=0;rounded=0;" parent="1" target="a0_oUcO_zjaNSEBDjv2x-2" edge="1">
          <mxGeometry width="80" relative="1" as="geometry">
            <mxPoint x="80" y="250" as="sourcePoint" />
            <mxPoint x="173.8" y="250" as="targetPoint" />
          </mxGeometry>
        </mxCell>
        <mxCell id="a0_oUcO_zjaNSEBDjv2x-6" value="use(s)" style="html=1;verticalAlign=bottom;endArrow=block;curved=0;rounded=0;" parent="1" edge="1">
          <mxGeometry width="80" relative="1" as="geometry">
            <mxPoint x="198.80000000000013" y="260" as="sourcePoint" />
            <mxPoint x="348.8" y="260" as="targetPoint" />
          </mxGeometry>
        </mxCell>
        <mxCell id="a0_oUcO_zjaNSEBDjv2x-7" value="" style="html=1;verticalAlign=bottom;endArrow=open;dashed=1;endSize=8;curved=0;rounded=0;" parent="1" edge="1">
          <mxGeometry relative="1" as="geometry">
            <mxPoint x="353.8" y="350" as="sourcePoint" />
            <mxPoint x="198.79999999999995" y="349.99999999999994" as="targetPoint" />
          </mxGeometry>
        </mxCell>
        <mxCell id="a0_oUcO_zjaNSEBDjv2x-8" value="" style="html=1;verticalAlign=bottom;endArrow=open;dashed=1;endSize=8;curved=0;rounded=0;exitX=0;exitY=1;exitDx=0;exitDy=-5;exitPerimeter=0;" parent="1" source="a0_oUcO_zjaNSEBDjv2x-2" edge="1">
          <mxGeometry relative="1" as="geometry">
            <mxPoint x="193.8" y="350" as="sourcePoint" />
            <mxPoint x="80" y="405" as="targetPoint" />
          </mxGeometry>
        </mxCell>
        <mxCell id="a0_oUcO_zjaNSEBDjv2x-9" value="&lt;b&gt;sd&lt;/b&gt;&amp;nbsp;Use Dice" style="shape=umlFrame;whiteSpace=wrap;html=1;pointerEvents=0;width=190;height=30;" parent="1" vertex="1">
          <mxGeometry x="80" y="130" width="383.8" height="320" as="geometry" />
        </mxCell>
        <mxCell id="a0_oUcO_zjaNSEBDjv2x-10" value="" style="endArrow=none;dashed=1;html=1;rounded=0;" parent="1" edge="1">
          <mxGeometry width="50" height="50" relative="1" as="geometry">
            <mxPoint x="80" y="465" as="sourcePoint" />
            <mxPoint x="80" y="115" as="targetPoint" />
          </mxGeometry>
        </mxCell>
        <mxCell id="a0_oUcO_zjaNSEBDjv2x-11" value=":Tester" style="shape=umlActor;verticalLabelPosition=bottom;verticalAlign=top;html=1;outlineConnect=0;" parent="1" vertex="1">
          <mxGeometry x="60" y="25" width="40" height="70" as="geometry" />
        </mxCell>
        <mxCell id="a0_oUcO_zjaNSEBDjv2x-12" value="" style="html=1;points=[[0,0,0,0,5],[0,1,0,0,-5],[1,0,0,0,5],[1,1,0,0,-5]];perimeter=orthogonalPerimeter;outlineConnect=0;targetShapes=umlLifeline;portConstraint=eastwest;newEdgeStyle={&quot;curved&quot;:0,&quot;rounded&quot;:0};" parent="1" vertex="1">
          <mxGeometry x="199" y="310" width="10" height="30" as="geometry" />
        </mxCell>
        <mxCell id="a0_oUcO_zjaNSEBDjv2x-13" value="addRounds(r)" style="html=1;verticalAlign=bottom;endArrow=block;curved=0;rounded=0;entryX=1;entryY=0;entryDx=0;entryDy=5;" parent="1" source="a0_oUcO_zjaNSEBDjv2x-4" target="a0_oUcO_zjaNSEBDjv2x-12" edge="1">
          <mxGeometry relative="1" as="geometry">
            <mxPoint x="279" y="275" as="sourcePoint" />
          </mxGeometry>
        </mxCell>
        <mxCell id="a0_oUcO_zjaNSEBDjv2x-14" value="" style="html=1;verticalAlign=bottom;endArrow=open;dashed=1;endSize=8;curved=0;rounded=0;exitX=1;exitY=1;exitDx=0;exitDy=-5;" parent="1" source="a0_oUcO_zjaNSEBDjv2x-12" target="a0_oUcO_zjaNSEBDjv2x-4" edge="1">
          <mxGeometry relative="1" as="geometry">
            <mxPoint x="279" y="345" as="targetPoint" />
          </mxGeometry>
        </mxCell>
        <mxCell id="a0_oUcO_zjaNSEBDjv2x-15" value="" style="html=1;points=[[0,0,0,0,5],[0,1,0,0,-5],[1,0,0,0,5],[1,1,0,0,-5]];perimeter=orthogonalPerimeter;outlineConnect=0;targetShapes=umlLifeline;portConstraint=eastwest;newEdgeStyle={&quot;curved&quot;:0,&quot;rounded&quot;:0};" parent="1" vertex="1">
          <mxGeometry x="354" y="285" width="10" height="15" as="geometry" />
        </mxCell>
        <mxCell id="a0_oUcO_zjaNSEBDjv2x-16" value="r = throw()" style="html=1;align=left;spacingLeft=2;endArrow=block;rounded=0;edgeStyle=orthogonalEdgeStyle;curved=0;rounded=0;" parent="1" target="a0_oUcO_zjaNSEBDjv2x-15" edge="1">
          <mxGeometry x="0.0026" relative="1" as="geometry">
            <mxPoint x="359" y="265" as="sourcePoint" />
            <Array as="points">
              <mxPoint x="389" y="295" />
            </Array>
            <mxPoint as="offset" />
          </mxGeometry>
        </mxCell>
      </root>
    </mxGraphModel>
  </diagram>
  <diagram id="lpm7TRSDbnJvgs-8HZxf" name="Use FFP2">
    <mxGraphModel dx="480" dy="413" grid="1" gridSize="10" guides="1" tooltips="1" connect="1" arrows="1" fold="1" page="1" pageScale="1" pageWidth="827" pageHeight="1169" math="0" shadow="0">
      <root>
        <mxCell id="0" />
        <mxCell id="1" parent="0" />
        <mxCell id="t3xWhxuUvWqraA9RqE84-1" value="s: Student" style="shape=umlLifeline;perimeter=lifelinePerimeter;whiteSpace=wrap;html=1;container=1;dropTarget=0;collapsible=0;recursiveResize=0;outlineConnect=0;portConstraint=eastwest;newEdgeStyle={&quot;curved&quot;:0,&quot;rounded&quot;:0};" parent="1" vertex="1">
          <mxGeometry x="143.8" y="170" width="100" height="200" as="geometry" />
        </mxCell>
        <mxCell id="t3xWhxuUvWqraA9RqE84-2" value="" style="html=1;points=[[0,0,0,0,5],[0,1,0,0,-5],[1,0,0,0,5],[1,1,0,0,-5]];perimeter=orthogonalPerimeter;outlineConnect=0;targetShapes=umlLifeline;portConstraint=eastwest;newEdgeStyle={&quot;curved&quot;:0,&quot;rounded&quot;:0};" parent="t3xWhxuUvWqraA9RqE84-1" vertex="1">
          <mxGeometry x="45" y="70" width="10" height="110" as="geometry" />
        </mxCell>
        <mxCell id="t3xWhxuUvWqraA9RqE84-3" value="f: FFP2" style="shape=umlLifeline;perimeter=lifelinePerimeter;whiteSpace=wrap;html=1;container=1;dropTarget=0;collapsible=0;recursiveResize=0;outlineConnect=0;portConstraint=eastwest;newEdgeStyle={&quot;curved&quot;:0,&quot;rounded&quot;:0};" parent="1" vertex="1">
          <mxGeometry x="303.8" y="170" width="100" height="200" as="geometry" />
        </mxCell>
        <mxCell id="t3xWhxuUvWqraA9RqE84-4" value="" style="html=1;points=[[0,0,0,0,5],[0,1,0,0,-5],[1,0,0,0,5],[1,1,0,0,-5]];perimeter=orthogonalPerimeter;outlineConnect=0;targetShapes=umlLifeline;portConstraint=eastwest;newEdgeStyle={&quot;curved&quot;:0,&quot;rounded&quot;:0};" parent="t3xWhxuUvWqraA9RqE84-3" vertex="1">
          <mxGeometry x="45" y="90" width="10" height="60" as="geometry" />
        </mxCell>
        <mxCell id="t3xWhxuUvWqraA9RqE84-5" value="useItem(f)" style="html=1;verticalAlign=bottom;endArrow=block;curved=0;rounded=0;" parent="1" target="t3xWhxuUvWqraA9RqE84-2" edge="1">
          <mxGeometry width="80" relative="1" as="geometry">
            <mxPoint x="80" y="250" as="sourcePoint" />
            <mxPoint x="173.8" y="250" as="targetPoint" />
          </mxGeometry>
        </mxCell>
        <mxCell id="t3xWhxuUvWqraA9RqE84-6" value="use(s)" style="html=1;verticalAlign=bottom;endArrow=block;curved=0;rounded=0;" parent="1" edge="1">
          <mxGeometry width="80" relative="1" as="geometry">
            <mxPoint x="198.80000000000013" y="260" as="sourcePoint" />
            <mxPoint x="348.8" y="260" as="targetPoint" />
          </mxGeometry>
        </mxCell>
        <mxCell id="t3xWhxuUvWqraA9RqE84-7" value="" style="html=1;verticalAlign=bottom;endArrow=open;dashed=1;endSize=8;curved=0;rounded=0;" parent="1" target="t3xWhxuUvWqraA9RqE84-2" edge="1">
          <mxGeometry relative="1" as="geometry">
            <mxPoint x="353.8" y="319.58" as="sourcePoint" />
            <mxPoint x="203.80000000000013" y="319.58" as="targetPoint" />
          </mxGeometry>
        </mxCell>
        <mxCell id="t3xWhxuUvWqraA9RqE84-8" value="" style="html=1;verticalAlign=bottom;endArrow=open;dashed=1;endSize=8;curved=0;rounded=0;entryX=0.001;entryY=0.869;entryDx=0;entryDy=0;entryPerimeter=0;" parent="1" target="t3xWhxuUvWqraA9RqE84-9" edge="1">
          <mxGeometry relative="1" as="geometry">
            <mxPoint x="193.8" y="350" as="sourcePoint" />
            <mxPoint x="113.8" y="350" as="targetPoint" />
          </mxGeometry>
        </mxCell>
        <mxCell id="t3xWhxuUvWqraA9RqE84-9" value="&lt;b&gt;sd&lt;/b&gt;&amp;nbsp;Use FFP2" style="shape=umlFrame;whiteSpace=wrap;html=1;pointerEvents=0;width=190;height=30;" parent="1" vertex="1">
          <mxGeometry x="80" y="130" width="383.8" height="250" as="geometry" />
        </mxCell>
        <mxCell id="t3xWhxuUvWqraA9RqE84-10" value="" style="endArrow=none;dashed=1;html=1;rounded=0;" parent="1" edge="1">
          <mxGeometry width="50" height="50" relative="1" as="geometry">
            <mxPoint x="80" y="465" as="sourcePoint" />
            <mxPoint x="80" y="115" as="targetPoint" />
          </mxGeometry>
        </mxCell>
        <mxCell id="t3xWhxuUvWqraA9RqE84-11" value=":Tester" style="shape=umlActor;verticalLabelPosition=bottom;verticalAlign=top;html=1;outlineConnect=0;" parent="1" vertex="1">
          <mxGeometry x="60" y="25" width="40" height="70" as="geometry" />
        </mxCell>
        <mxCell id="jVFeLC62Bz3cH-C8BLoT-1" value="" style="html=1;points=[[0,0,0,0,5],[0,1,0,0,-5],[1,0,0,0,5],[1,1,0,0,-5]];perimeter=orthogonalPerimeter;outlineConnect=0;targetShapes=umlLifeline;portConstraint=eastwest;newEdgeStyle={&quot;curved&quot;:0,&quot;rounded&quot;:0};" parent="1" vertex="1">
          <mxGeometry x="199" y="280" width="10" height="30" as="geometry" />
        </mxCell>
        <mxCell id="jVFeLC62Bz3cH-C8BLoT-2" value="addMaskedRounds(2)" style="html=1;verticalAlign=bottom;endArrow=block;curved=0;rounded=0;entryX=1;entryY=0;entryDx=0;entryDy=5;" parent="1" source="t3xWhxuUvWqraA9RqE84-4" target="jVFeLC62Bz3cH-C8BLoT-1" edge="1">
          <mxGeometry relative="1" as="geometry">
            <mxPoint x="279" y="285" as="sourcePoint" />
          </mxGeometry>
        </mxCell>
        <mxCell id="jVFeLC62Bz3cH-C8BLoT-3" value="" style="html=1;verticalAlign=bottom;endArrow=open;dashed=1;endSize=8;curved=0;rounded=0;exitX=1;exitY=1;exitDx=0;exitDy=-5;" parent="1" source="jVFeLC62Bz3cH-C8BLoT-1" target="t3xWhxuUvWqraA9RqE84-4" edge="1">
          <mxGeometry relative="1" as="geometry">
            <mxPoint x="279" y="355" as="targetPoint" />
          </mxGeometry>
        </mxCell>
      </root>
    </mxGraphModel>
  </diagram>
  <diagram id="q9sYYLnjESRC8t9VvrVC" name="Use Transistor">
    <mxGraphModel dx="469" dy="404" grid="1" gridSize="10" guides="1" tooltips="1" connect="1" arrows="1" fold="1" page="1" pageScale="1" pageWidth="827" pageHeight="1169" math="0" shadow="0">
      <root>
        <mxCell id="0" />
        <mxCell id="1" parent="0" />
        <mxCell id="URZjzNzTb4iMi8LpVNgB-1" value="s: Student" style="shape=umlLifeline;perimeter=lifelinePerimeter;whiteSpace=wrap;html=1;container=1;dropTarget=0;collapsible=0;recursiveResize=0;outlineConnect=0;portConstraint=eastwest;newEdgeStyle={&quot;curved&quot;:0,&quot;rounded&quot;:0};" vertex="1" parent="1">
          <mxGeometry x="143.8" y="170" width="100" height="200" as="geometry" />
        </mxCell>
        <mxCell id="URZjzNzTb4iMi8LpVNgB-2" value="" style="html=1;points=[[0,0,0,0,5],[0,1,0,0,-5],[1,0,0,0,5],[1,1,0,0,-5]];perimeter=orthogonalPerimeter;outlineConnect=0;targetShapes=umlLifeline;portConstraint=eastwest;newEdgeStyle={&quot;curved&quot;:0,&quot;rounded&quot;:0};" vertex="1" parent="URZjzNzTb4iMi8LpVNgB-1">
          <mxGeometry x="45" y="70" width="10" height="110" as="geometry" />
        </mxCell>
        <mxCell id="URZjzNzTb4iMi8LpVNgB-3" value="t: Transistor" style="shape=umlLifeline;perimeter=lifelinePerimeter;whiteSpace=wrap;html=1;container=1;dropTarget=0;collapsible=0;recursiveResize=0;outlineConnect=0;portConstraint=eastwest;newEdgeStyle={&quot;curved&quot;:0,&quot;rounded&quot;:0};" vertex="1" parent="1">
          <mxGeometry x="260" y="170" width="90" height="200" as="geometry" />
        </mxCell>
        <mxCell id="URZjzNzTb4iMi8LpVNgB-4" value="" style="html=1;points=[[0,0,0,0,5],[0,1,0,0,-5],[1,0,0,0,5],[1,1,0,0,-5]];perimeter=orthogonalPerimeter;outlineConnect=0;targetShapes=umlLifeline;portConstraint=eastwest;newEdgeStyle={&quot;curved&quot;:0,&quot;rounded&quot;:0};" vertex="1" parent="URZjzNzTb4iMi8LpVNgB-3">
          <mxGeometry x="40" y="80" width="10" height="100" as="geometry" />
        </mxCell>
        <mxCell id="URZjzNzTb4iMi8LpVNgB-5" value="useItem(t)" style="html=1;verticalAlign=bottom;endArrow=block;curved=0;rounded=0;" edge="1" parent="1">
          <mxGeometry width="80" relative="1" as="geometry">
            <mxPoint x="80" y="240" as="sourcePoint" />
            <mxPoint x="188.79999999999995" y="240" as="targetPoint" />
          </mxGeometry>
        </mxCell>
        <mxCell id="URZjzNzTb4iMi8LpVNgB-6" value="use(s)" style="html=1;verticalAlign=bottom;endArrow=block;curved=0;rounded=0;entryX=0;entryY=0;entryDx=0;entryDy=5;entryPerimeter=0;" edge="1" parent="1" source="URZjzNzTb4iMi8LpVNgB-2" target="URZjzNzTb4iMi8LpVNgB-4">
          <mxGeometry width="80" relative="1" as="geometry">
            <mxPoint x="198.80000000000013" y="260" as="sourcePoint" />
            <mxPoint x="348.8" y="260" as="targetPoint" />
          </mxGeometry>
        </mxCell>
        <mxCell id="URZjzNzTb4iMi8LpVNgB-7" value="" style="html=1;verticalAlign=bottom;endArrow=open;dashed=1;endSize=8;curved=0;rounded=0;exitX=0;exitY=1;exitDx=0;exitDy=-5;exitPerimeter=0;" edge="1" parent="1" target="URZjzNzTb4iMi8LpVNgB-2" source="URZjzNzTb4iMi8LpVNgB-4">
          <mxGeometry relative="1" as="geometry">
            <mxPoint x="353.8" y="319.58" as="sourcePoint" />
            <mxPoint x="203.80000000000013" y="319.58" as="targetPoint" />
          </mxGeometry>
        </mxCell>
        <mxCell id="URZjzNzTb4iMi8LpVNgB-8" value="" style="html=1;verticalAlign=bottom;endArrow=open;dashed=1;endSize=8;curved=0;rounded=0;" edge="1" parent="1">
          <mxGeometry relative="1" as="geometry">
            <mxPoint x="193.8" y="350" as="sourcePoint" />
            <mxPoint x="80" y="350" as="targetPoint" />
          </mxGeometry>
        </mxCell>
        <mxCell id="URZjzNzTb4iMi8LpVNgB-9" value="&lt;b&gt;sd&lt;/b&gt;&amp;nbsp;Use Transistor" style="shape=umlFrame;whiteSpace=wrap;html=1;pointerEvents=0;width=190;height=30;" vertex="1" parent="1">
          <mxGeometry x="80" y="130" width="383.8" height="250" as="geometry" />
        </mxCell>
        <mxCell id="URZjzNzTb4iMi8LpVNgB-10" value="" style="endArrow=none;dashed=1;html=1;rounded=0;" edge="1" parent="1">
          <mxGeometry width="50" height="50" relative="1" as="geometry">
            <mxPoint x="80" y="465" as="sourcePoint" />
            <mxPoint x="80" y="115" as="targetPoint" />
          </mxGeometry>
        </mxCell>
        <mxCell id="URZjzNzTb4iMi8LpVNgB-11" value=":Tester" style="shape=umlActor;verticalLabelPosition=bottom;verticalAlign=top;html=1;outlineConnect=0;" vertex="1" parent="1">
          <mxGeometry x="60" y="25" width="40" height="70" as="geometry" />
        </mxCell>
        <mxCell id="EJrGBCcH9MjQwL1mnfDM-1" value="r: Room" style="shape=umlLifeline;perimeter=lifelinePerimeter;whiteSpace=wrap;html=1;container=1;dropTarget=0;collapsible=0;recursiveResize=0;outlineConnect=0;portConstraint=eastwest;newEdgeStyle={&quot;curved&quot;:0,&quot;rounded&quot;:0};" vertex="1" parent="1">
          <mxGeometry x="360" y="170" width="100" height="200" as="geometry" />
        </mxCell>
        <mxCell id="EJrGBCcH9MjQwL1mnfDM-5" value="" style="html=1;points=[[0,0,0,0,5],[0,1,0,0,-5],[1,0,0,0,5],[1,1,0,0,-5]];perimeter=orthogonalPerimeter;outlineConnect=0;targetShapes=umlLifeline;portConstraint=eastwest;newEdgeStyle={&quot;curved&quot;:0,&quot;rounded&quot;:0};" vertex="1" parent="EJrGBCcH9MjQwL1mnfDM-1">
          <mxGeometry x="44" y="130" width="10" height="30" as="geometry" />
        </mxCell>
        <mxCell id="EJrGBCcH9MjQwL1mnfDM-2" value="" style="html=1;points=[[0,0,0,0,5],[0,1,0,0,-5],[1,0,0,0,5],[1,1,0,0,-5]];perimeter=orthogonalPerimeter;outlineConnect=0;targetShapes=umlLifeline;portConstraint=eastwest;newEdgeStyle={&quot;curved&quot;:0,&quot;rounded&quot;:0};" vertex="1" parent="1">
          <mxGeometry x="199" y="270" width="10" height="30" as="geometry" />
        </mxCell>
        <mxCell id="EJrGBCcH9MjQwL1mnfDM-3" value="getRoom()" style="html=1;verticalAlign=bottom;endArrow=block;curved=0;rounded=0;entryX=1;entryY=0;entryDx=0;entryDy=5;" edge="1" target="EJrGBCcH9MjQwL1mnfDM-2" parent="1" source="URZjzNzTb4iMi8LpVNgB-4">
          <mxGeometry relative="1" as="geometry">
            <mxPoint x="279" y="275" as="sourcePoint" />
          </mxGeometry>
        </mxCell>
        <mxCell id="EJrGBCcH9MjQwL1mnfDM-4" value="r: Room" style="html=1;verticalAlign=bottom;endArrow=open;dashed=1;endSize=8;curved=0;rounded=0;exitX=1;exitY=1;exitDx=0;exitDy=-5;" edge="1" source="EJrGBCcH9MjQwL1mnfDM-2" parent="1" target="URZjzNzTb4iMi8LpVNgB-4">
          <mxGeometry x="-0.0989" relative="1" as="geometry">
            <mxPoint x="279" y="345" as="targetPoint" />
            <mxPoint as="offset" />
          </mxGeometry>
        </mxCell>
        <mxCell id="EJrGBCcH9MjQwL1mnfDM-6" value="addTransistor(t)" style="html=1;verticalAlign=bottom;endArrow=block;curved=0;rounded=0;entryX=0;entryY=0;entryDx=0;entryDy=5;" edge="1" target="EJrGBCcH9MjQwL1mnfDM-5" parent="1" source="URZjzNzTb4iMi8LpVNgB-4">
          <mxGeometry relative="1" as="geometry">
            <mxPoint x="334" y="305" as="sourcePoint" />
          </mxGeometry>
        </mxCell>
        <mxCell id="EJrGBCcH9MjQwL1mnfDM-7" value="" style="html=1;verticalAlign=bottom;endArrow=open;dashed=1;endSize=8;curved=0;rounded=0;exitX=0;exitY=1;exitDx=0;exitDy=-5;" edge="1" source="EJrGBCcH9MjQwL1mnfDM-5" parent="1" target="URZjzNzTb4iMi8LpVNgB-4">
          <mxGeometry relative="1" as="geometry">
            <mxPoint x="334" y="375" as="targetPoint" />
          </mxGeometry>
        </mxCell>
      </root>
    </mxGraphModel>
  </diagram>
  <diagram id="OF1X45QZrV2f0yHe9kJ4" name="Page-7">
    <mxGraphModel dx="660" dy="568" grid="1" gridSize="10" guides="1" tooltips="1" connect="1" arrows="1" fold="1" page="1" pageScale="1" pageWidth="827" pageHeight="1169" math="0" shadow="0">
      <root>
        <mxCell id="0" />
        <mxCell id="1" parent="0" />
        <mxCell id="hPaXpXn_2FXSuq_3yjFY-1" value="s: Student" style="shape=umlLifeline;perimeter=lifelinePerimeter;whiteSpace=wrap;html=1;container=1;dropTarget=0;collapsible=0;recursiveResize=0;outlineConnect=0;portConstraint=eastwest;newEdgeStyle={&quot;curved&quot;:0,&quot;rounded&quot;:0};" vertex="1" parent="1">
          <mxGeometry x="143.8" y="170" width="100" height="270" as="geometry" />
        </mxCell>
        <mxCell id="hPaXpXn_2FXSuq_3yjFY-2" value="" style="html=1;points=[[0,0,0,0,5],[0,1,0,0,-5],[1,0,0,0,5],[1,1,0,0,-5]];perimeter=orthogonalPerimeter;outlineConnect=0;targetShapes=umlLifeline;portConstraint=eastwest;newEdgeStyle={&quot;curved&quot;:0,&quot;rounded&quot;:0};" vertex="1" parent="hPaXpXn_2FXSuq_3yjFY-1">
          <mxGeometry x="45" y="70" width="10" height="190" as="geometry" />
        </mxCell>
        <mxCell id="hPaXpXn_2FXSuq_3yjFY-3" value="c: Camambert" style="shape=umlLifeline;perimeter=lifelinePerimeter;whiteSpace=wrap;html=1;container=1;dropTarget=0;collapsible=0;recursiveResize=0;outlineConnect=0;portConstraint=eastwest;newEdgeStyle={&quot;curved&quot;:0,&quot;rounded&quot;:0};" vertex="1" parent="1">
          <mxGeometry x="250" y="170" width="90" height="270" as="geometry" />
        </mxCell>
        <mxCell id="hPaXpXn_2FXSuq_3yjFY-4" value="" style="html=1;points=[[0,0,0,0,5],[0,1,0,0,-5],[1,0,0,0,5],[1,1,0,0,-5]];perimeter=orthogonalPerimeter;outlineConnect=0;targetShapes=umlLifeline;portConstraint=eastwest;newEdgeStyle={&quot;curved&quot;:0,&quot;rounded&quot;:0};" vertex="1" parent="hPaXpXn_2FXSuq_3yjFY-3">
          <mxGeometry x="40" y="80" width="10" height="170" as="geometry" />
        </mxCell>
        <mxCell id="hPaXpXn_2FXSuq_3yjFY-5" value="useItem(i)" style="html=1;verticalAlign=bottom;endArrow=block;curved=0;rounded=0;" edge="1" parent="1" target="hPaXpXn_2FXSuq_3yjFY-2">
          <mxGeometry width="80" relative="1" as="geometry">
            <mxPoint x="80" y="250" as="sourcePoint" />
            <mxPoint x="173.8" y="250" as="targetPoint" />
          </mxGeometry>
        </mxCell>
        <mxCell id="hPaXpXn_2FXSuq_3yjFY-6" value="use(s)" style="html=1;verticalAlign=bottom;endArrow=block;curved=0;rounded=0;entryX=0;entryY=0;entryDx=0;entryDy=5;entryPerimeter=0;" edge="1" parent="1" source="hPaXpXn_2FXSuq_3yjFY-2" target="hPaXpXn_2FXSuq_3yjFY-4">
          <mxGeometry width="80" relative="1" as="geometry">
            <mxPoint x="198.80000000000013" y="260" as="sourcePoint" />
            <mxPoint x="348.8" y="260" as="targetPoint" />
          </mxGeometry>
        </mxCell>
        <mxCell id="hPaXpXn_2FXSuq_3yjFY-7" value="" style="html=1;verticalAlign=bottom;endArrow=open;dashed=1;endSize=8;curved=0;rounded=0;exitX=0;exitY=1;exitDx=0;exitDy=-5;exitPerimeter=0;" edge="1" parent="1" target="hPaXpXn_2FXSuq_3yjFY-2" source="hPaXpXn_2FXSuq_3yjFY-4">
          <mxGeometry relative="1" as="geometry">
            <mxPoint x="353.8" y="319.58" as="sourcePoint" />
            <mxPoint x="203.80000000000013" y="319.58" as="targetPoint" />
          </mxGeometry>
        </mxCell>
        <mxCell id="hPaXpXn_2FXSuq_3yjFY-8" value="" style="html=1;verticalAlign=bottom;endArrow=open;dashed=1;endSize=8;curved=0;rounded=0;entryX=0.001;entryY=0.869;entryDx=0;entryDy=0;entryPerimeter=0;" edge="1" parent="1" target="hPaXpXn_2FXSuq_3yjFY-9" source="hPaXpXn_2FXSuq_3yjFY-2">
          <mxGeometry relative="1" as="geometry">
            <mxPoint x="193.8" y="350" as="sourcePoint" />
            <mxPoint x="113.8" y="350" as="targetPoint" />
          </mxGeometry>
        </mxCell>
        <mxCell id="hPaXpXn_2FXSuq_3yjFY-9" value="&lt;b&gt;sd&lt;/b&gt;&amp;nbsp;Use Camambert" style="shape=umlFrame;whiteSpace=wrap;html=1;pointerEvents=0;width=190;height=30;" vertex="1" parent="1">
          <mxGeometry x="80" y="130" width="680" height="330" as="geometry" />
        </mxCell>
        <mxCell id="hPaXpXn_2FXSuq_3yjFY-10" value="" style="endArrow=none;dashed=1;html=1;rounded=0;" edge="1" parent="1">
          <mxGeometry width="50" height="50" relative="1" as="geometry">
            <mxPoint x="80" y="465" as="sourcePoint" />
            <mxPoint x="80" y="115" as="targetPoint" />
          </mxGeometry>
        </mxCell>
        <mxCell id="hPaXpXn_2FXSuq_3yjFY-11" value=":Tester" style="shape=umlActor;verticalLabelPosition=bottom;verticalAlign=top;html=1;outlineConnect=0;" vertex="1" parent="1">
          <mxGeometry x="60" y="25" width="40" height="70" as="geometry" />
        </mxCell>
        <mxCell id="hPaXpXn_2FXSuq_3yjFY-12" value="g: GasRoom" style="shape=umlLifeline;perimeter=lifelinePerimeter;whiteSpace=wrap;html=1;container=1;dropTarget=0;collapsible=0;recursiveResize=0;outlineConnect=0;portConstraint=eastwest;newEdgeStyle={&quot;curved&quot;:0,&quot;rounded&quot;:0};" vertex="1" parent="1">
          <mxGeometry x="414" y="240" width="100" height="200" as="geometry" />
        </mxCell>
        <mxCell id="hPaXpXn_2FXSuq_3yjFY-13" value="&amp;lt;&amp;lt;create&amp;gt;&amp;gt;" style="endArrow=open;endSize=12;dashed=1;html=1;rounded=0;" edge="1" parent="1">
          <mxGeometry x="-0.0913" y="10" width="160" relative="1" as="geometry">
            <mxPoint x="300" y="269.78" as="sourcePoint" />
            <mxPoint x="410" y="270" as="targetPoint" />
            <mxPoint as="offset" />
          </mxGeometry>
        </mxCell>
        <mxCell id="hPaXpXn_2FXSuq_3yjFY-14" value="" style="html=1;points=[[0,0,0,0,5],[0,1,0,0,-5],[1,0,0,0,5],[1,1,0,0,-5]];perimeter=orthogonalPerimeter;outlineConnect=0;targetShapes=umlLifeline;portConstraint=eastwest;newEdgeStyle={&quot;curved&quot;:0,&quot;rounded&quot;:0};" vertex="1" parent="1">
          <mxGeometry x="199" y="270" width="10" height="30" as="geometry" />
        </mxCell>
        <mxCell id="hPaXpXn_2FXSuq_3yjFY-15" value="getRoom()" style="html=1;verticalAlign=bottom;endArrow=block;curved=0;rounded=0;entryX=1;entryY=0;entryDx=0;entryDy=5;" edge="1" target="hPaXpXn_2FXSuq_3yjFY-14" parent="1" source="hPaXpXn_2FXSuq_3yjFY-4">
          <mxGeometry relative="1" as="geometry">
            <mxPoint x="279" y="275" as="sourcePoint" />
          </mxGeometry>
        </mxCell>
        <mxCell id="hPaXpXn_2FXSuq_3yjFY-16" value="r: Room" style="html=1;verticalAlign=bottom;endArrow=open;dashed=1;endSize=8;curved=0;rounded=0;exitX=1;exitY=1;exitDx=0;exitDy=-5;" edge="1" source="hPaXpXn_2FXSuq_3yjFY-14" parent="1" target="hPaXpXn_2FXSuq_3yjFY-4">
          <mxGeometry relative="1" as="geometry">
            <mxPoint x="279" y="345" as="targetPoint" />
          </mxGeometry>
        </mxCell>
        <mxCell id="TH8tsN16BNuSsZC2YSB5-1" value="r: Room" style="shape=umlLifeline;perimeter=lifelinePerimeter;whiteSpace=wrap;html=1;container=1;dropTarget=0;collapsible=0;recursiveResize=0;outlineConnect=0;portConstraint=eastwest;newEdgeStyle={&quot;curved&quot;:0,&quot;rounded&quot;:0};" vertex="1" parent="1">
          <mxGeometry x="490" y="170" width="100" height="270" as="geometry" />
        </mxCell>
        <mxCell id="TH8tsN16BNuSsZC2YSB5-2" value="" style="html=1;points=[[0,0,0,0,5],[0,1,0,0,-5],[1,0,0,0,5],[1,1,0,0,-5]];perimeter=orthogonalPerimeter;outlineConnect=0;targetShapes=umlLifeline;portConstraint=eastwest;newEdgeStyle={&quot;curved&quot;:0,&quot;rounded&quot;:0};" vertex="1" parent="TH8tsN16BNuSsZC2YSB5-1">
          <mxGeometry x="45" y="140" width="10" height="20" as="geometry" />
        </mxCell>
        <mxCell id="TH8tsN16BNuSsZC2YSB5-3" value="copyToRoom(g)" style="html=1;verticalAlign=bottom;endArrow=block;curved=0;rounded=0;entryX=0;entryY=0;entryDx=0;entryDy=5;" edge="1" target="TH8tsN16BNuSsZC2YSB5-2" parent="1" source="hPaXpXn_2FXSuq_3yjFY-4">
          <mxGeometry relative="1" as="geometry">
            <mxPoint x="515" y="315" as="sourcePoint" />
          </mxGeometry>
        </mxCell>
        <mxCell id="TH8tsN16BNuSsZC2YSB5-4" value="" style="html=1;verticalAlign=bottom;endArrow=open;dashed=1;endSize=8;curved=0;rounded=0;exitX=0;exitY=1;exitDx=0;exitDy=-5;" edge="1" source="TH8tsN16BNuSsZC2YSB5-2" parent="1">
          <mxGeometry relative="1" as="geometry">
            <mxPoint x="300" y="325" as="targetPoint" />
          </mxGeometry>
        </mxCell>
        <mxCell id="TH8tsN16BNuSsZC2YSB5-5" value="gc: GameController" style="shape=umlLifeline;perimeter=lifelinePerimeter;whiteSpace=wrap;html=1;container=1;dropTarget=0;collapsible=0;recursiveResize=0;outlineConnect=0;portConstraint=eastwest;newEdgeStyle={&quot;curved&quot;:0,&quot;rounded&quot;:0};" vertex="1" parent="1">
          <mxGeometry x="620" y="170" width="110" height="270" as="geometry" />
        </mxCell>
        <mxCell id="TH8tsN16BNuSsZC2YSB5-6" value="" style="html=1;points=[[0,0,0,0,5],[0,1,0,0,-5],[1,0,0,0,5],[1,1,0,0,-5]];perimeter=orthogonalPerimeter;outlineConnect=0;targetShapes=umlLifeline;portConstraint=eastwest;newEdgeStyle={&quot;curved&quot;:0,&quot;rounded&quot;:0};" vertex="1" parent="TH8tsN16BNuSsZC2YSB5-5">
          <mxGeometry x="50" y="170" width="10" height="20" as="geometry" />
        </mxCell>
        <mxCell id="TH8tsN16BNuSsZC2YSB5-9" value="" style="html=1;points=[[0,0,0,0,5],[0,1,0,0,-5],[1,0,0,0,5],[1,1,0,0,-5]];perimeter=orthogonalPerimeter;outlineConnect=0;targetShapes=umlLifeline;portConstraint=eastwest;newEdgeStyle={&quot;curved&quot;:0,&quot;rounded&quot;:0};" vertex="1" parent="TH8tsN16BNuSsZC2YSB5-5">
          <mxGeometry x="50" y="200" width="10" height="20" as="geometry" />
        </mxCell>
        <mxCell id="TH8tsN16BNuSsZC2YSB5-7" value="addRoom(gc)" style="html=1;verticalAlign=bottom;endArrow=block;curved=0;rounded=0;entryX=0;entryY=0;entryDx=0;entryDy=5;" edge="1" target="TH8tsN16BNuSsZC2YSB5-6" parent="1" source="hPaXpXn_2FXSuq_3yjFY-4">
          <mxGeometry x="0.0811" relative="1" as="geometry">
            <mxPoint x="600" y="335" as="sourcePoint" />
            <mxPoint as="offset" />
          </mxGeometry>
        </mxCell>
        <mxCell id="TH8tsN16BNuSsZC2YSB5-8" value="" style="html=1;verticalAlign=bottom;endArrow=open;dashed=1;endSize=8;curved=0;rounded=0;exitX=0;exitY=1;exitDx=0;exitDy=-5;" edge="1" source="TH8tsN16BNuSsZC2YSB5-6" parent="1" target="hPaXpXn_2FXSuq_3yjFY-4">
          <mxGeometry relative="1" as="geometry">
            <mxPoint x="600" y="405" as="targetPoint" />
          </mxGeometry>
        </mxCell>
        <mxCell id="TH8tsN16BNuSsZC2YSB5-10" value="removeRoom(r)" style="html=1;verticalAlign=bottom;endArrow=block;curved=0;rounded=0;entryX=0;entryY=0;entryDx=0;entryDy=5;" edge="1" target="TH8tsN16BNuSsZC2YSB5-9" parent="1" source="hPaXpXn_2FXSuq_3yjFY-4">
          <mxGeometry x="0.0811" relative="1" as="geometry">
            <mxPoint x="600" y="375" as="sourcePoint" />
            <mxPoint as="offset" />
          </mxGeometry>
        </mxCell>
        <mxCell id="TH8tsN16BNuSsZC2YSB5-11" value="" style="html=1;verticalAlign=bottom;endArrow=open;dashed=1;endSize=8;curved=0;rounded=0;exitX=0;exitY=1;exitDx=0;exitDy=-5;" edge="1" source="TH8tsN16BNuSsZC2YSB5-9" parent="1" target="hPaXpXn_2FXSuq_3yjFY-4">
          <mxGeometry relative="1" as="geometry">
            <mxPoint x="600" y="445" as="targetPoint" />
          </mxGeometry>
        </mxCell>
      </root>
    </mxGraphModel>
  </diagram>
</mxfile>
